<svg width="147" height="39" viewBox="0 0 147 39" fill="none" xmlns="http://www.w3.org/2000/svg">
<ellipse cx="57.5" cy="19" rx="7.5" ry="9" fill="#206B4A"/>
<path d="M17.8864 15.1591C17.697 14.5455 17.4356 13.9962 17.1023 13.5114C16.7765 13.0189 16.3826 12.5985 15.9205 12.25C15.4659 11.9015 14.9432 11.6402 14.3523 11.4659C13.7614 11.2841 13.1174 11.1932 12.4205 11.1932C11.1705 11.1932 10.0568 11.5076 9.07955 12.1364C8.10227 12.7652 7.33333 13.6894 6.77273 14.9091C6.2197 16.1212 5.94318 17.5985 5.94318 19.3409C5.94318 21.0985 6.2197 22.5871 6.77273 23.8068C7.32576 25.0265 8.0947 25.9545 9.07955 26.5909C10.0644 27.2197 11.2083 27.5341 12.5114 27.5341C13.6932 27.5341 14.7159 27.3068 15.5795 26.8523C16.4508 26.3977 17.1212 25.7538 17.5909 24.9205C18.0606 24.0795 18.2955 23.0947 18.2955 21.9659L19.25 22.1136H12.9318V18.8182H22.375V21.6136C22.375 23.6061 21.9508 25.3295 21.1023 26.7841C20.2538 28.2386 19.0871 29.3598 17.6023 30.1477C16.1174 30.928 14.4129 31.3182 12.4886 31.3182C10.3447 31.3182 8.46212 30.8371 6.84091 29.875C5.22727 28.9053 3.96591 27.5303 3.05682 25.75C2.1553 23.9621 1.70455 21.8409 1.70455 19.3864C1.70455 17.5076 1.9697 15.8295 2.5 14.3523C3.03788 12.875 3.78788 11.6212 4.75 10.5909C5.71212 9.55303 6.84091 8.76515 8.13636 8.22727C9.43182 7.68182 10.8409 7.40909 12.3636 7.40909C13.6515 7.40909 14.8523 7.59848 15.9659 7.97727C17.0795 8.34848 18.0682 8.87879 18.9318 9.56818C19.803 10.2576 20.5189 11.0758 21.0795 12.0227C21.6402 12.9697 22.0076 14.0152 22.1818 15.1591H17.8864ZM26.4517 31V7.72727H35.179C36.9669 7.72727 38.4669 8.03788 39.679 8.65909C40.8987 9.2803 41.8191 10.1515 42.4403 11.2727C43.0691 12.3864 43.3835 13.6856 43.3835 15.1705C43.3835 16.6629 43.0653 17.9583 42.429 19.0568C41.8002 20.1477 40.8722 20.9924 39.6449 21.5909C38.4176 22.1818 36.91 22.4773 35.1222 22.4773H28.9062V18.9773H34.554C35.5994 18.9773 36.4555 18.8333 37.1222 18.5455C37.7888 18.25 38.2813 17.822 38.5994 17.2614C38.9252 16.6932 39.0881 15.9962 39.0881 15.1705C39.0881 14.3447 38.9252 13.6402 38.5994 13.0568C38.2737 12.4659 37.7775 12.0189 37.1108 11.7159C36.4441 11.4053 35.5843 11.25 34.5312 11.25H30.6676V31H26.4517ZM38.4744 20.4545L44.2358 31H39.5312L33.8722 20.4545H38.4744ZM68.0597 19.3636C68.0597 21.8712 67.59 24.0189 66.6506 25.8068C65.7188 27.5871 64.446 28.9508 62.8324 29.8977C61.2263 30.8447 59.4044 31.3182 57.3665 31.3182C55.3286 31.3182 53.5028 30.8447 51.8892 29.8977C50.2831 28.9432 49.0104 27.5758 48.071 25.7955C47.1392 24.0076 46.6733 21.8636 46.6733 19.3636C46.6733 16.8561 47.1392 14.7121 48.071 12.9318C49.0104 11.1439 50.2831 9.77651 51.8892 8.82954C53.5028 7.88257 55.3286 7.40909 57.3665 7.40909C59.4044 7.40909 61.2263 7.88257 62.8324 8.82954C64.446 9.77651 65.7188 11.1439 66.6506 12.9318C67.59 14.7121 68.0597 16.8561 68.0597 19.3636ZM63.821 19.3636C63.821 17.5985 63.5445 16.1098 62.9915 14.8977C62.446 13.678 61.6884 12.7576 60.7188 12.1364C59.7491 11.5076 58.6316 11.1932 57.3665 11.1932C56.1013 11.1932 54.9839 11.5076 54.0142 12.1364C53.0445 12.7576 52.2831 13.678 51.7301 14.8977C51.1847 16.1098 50.9119 17.5985 50.9119 19.3636C50.9119 21.1288 51.1847 22.6212 51.7301 23.8409C52.2831 25.053 53.0445 25.9735 54.0142 26.6023C54.9839 27.2235 56.1013 27.5341 57.3665 27.5341C58.6316 27.5341 59.7491 27.2235 60.7188 26.6023C61.6884 25.9735 62.446 25.053 62.9915 23.8409C63.5445 22.6212 63.821 21.1288 63.821 19.3636ZM76.3494 31L69.7812 7.72727H74.3153L78.5085 24.8295H78.7244L83.2017 7.72727H87.3267L91.8153 24.8409H92.0199L96.2131 7.72727H100.747L94.179 31H90.0199L85.3608 14.6705H85.179L80.5085 31H76.3494ZM102.648 11.2614V7.72727H121.216V11.2614H114.023V31H109.841V11.2614H102.648ZM124.795 31V7.72727H129.011V17.5795H139.795V7.72727H144.023V31H139.795V21.1136H129.011V31H124.795Z" fill="black"/>
</svg>
