<svg width="137" height="39" viewBox="0 0 137 39" fill="none" xmlns="http://www.w3.org/2000/svg">
<ellipse cx="80.5" cy="19" rx="7.5" ry="9" fill="#206B4A"/>
<ellipse cx="105.5" cy="19" rx="7.5" ry="9" fill="#206B4A"/>
<path d="M14.9432 14.125C14.8371 13.1326 14.3902 12.3598 13.6023 11.8068C12.822 11.2538 11.8068 10.9773 10.5568 10.9773C9.67803 10.9773 8.92424 11.1098 8.29545 11.375C7.66667 11.6402 7.18561 12 6.85227 12.4545C6.51894 12.9091 6.34849 13.428 6.34091 14.0114C6.34091 14.4962 6.45076 14.9167 6.67045 15.2727C6.89773 15.6288 7.20455 15.9318 7.59091 16.1818C7.97727 16.4242 8.4053 16.6288 8.875 16.7955C9.3447 16.9621 9.81818 17.1023 10.2955 17.2159L12.4773 17.7614C13.3561 17.9659 14.2008 18.2424 15.0114 18.5909C15.8295 18.9394 16.5606 19.3788 17.2045 19.9091C17.8561 20.4394 18.3712 21.0795 18.75 21.8295C19.1288 22.5795 19.3182 23.4583 19.3182 24.4659C19.3182 25.8295 18.9697 27.0303 18.2727 28.0682C17.5758 29.0985 16.5682 29.9053 15.25 30.4886C13.9394 31.0644 12.3523 31.3523 10.4886 31.3523C8.67803 31.3523 7.10606 31.072 5.77273 30.5114C4.44697 29.9508 3.40909 29.1326 2.65909 28.0568C1.91667 26.9811 1.51515 25.6705 1.45455 24.125H5.60227C5.66288 24.9356 5.91288 25.6098 6.35227 26.1477C6.79167 26.6856 7.36364 27.0871 8.06818 27.3523C8.7803 27.6174 9.57576 27.75 10.4545 27.75C11.3712 27.75 12.1742 27.6136 12.8636 27.3409C13.5606 27.0606 14.1061 26.6742 14.5 26.1818C14.8939 25.6818 15.0947 25.0985 15.1023 24.4318C15.0947 23.8258 14.9167 23.3258 14.5682 22.9318C14.2197 22.5303 13.7311 22.197 13.1023 21.9318C12.4811 21.6591 11.7538 21.4167 10.9205 21.2045L8.27273 20.5227C6.35606 20.0303 4.84091 19.2841 3.72727 18.2841C2.62121 17.2765 2.06818 15.9394 2.06818 14.2727C2.06818 12.9015 2.43939 11.7008 3.18182 10.6705C3.93182 9.64015 4.95076 8.84091 6.23864 8.27273C7.52652 7.69697 8.98485 7.40909 10.6136 7.40909C12.2652 7.40909 13.7121 7.69697 14.9545 8.27273C16.2045 8.84091 17.1856 9.63258 17.8977 10.6477C18.6098 11.6553 18.9773 12.8144 19 14.125H14.9432ZM42.9972 15.5795H38.7472C38.6259 14.8826 38.4025 14.2652 38.0767 13.7273C37.7509 13.1818 37.3456 12.7197 36.8608 12.3409C36.3759 11.9621 35.8229 11.678 35.2017 11.4886C34.5881 11.2917 33.9252 11.1932 33.2131 11.1932C31.9479 11.1932 30.8267 11.5114 29.8494 12.1477C28.8722 12.7765 28.107 13.7008 27.554 14.9205C27.0009 16.1326 26.7244 17.6136 26.7244 19.3636C26.7244 21.1439 27.0009 22.6439 27.554 23.8636C28.1146 25.0758 28.8797 25.9924 29.8494 26.6136C30.8267 27.2273 31.9441 27.5341 33.2017 27.5341C33.8987 27.5341 34.5502 27.4432 35.1562 27.2614C35.7699 27.072 36.3191 26.7955 36.804 26.4318C37.2964 26.0682 37.7093 25.6212 38.0426 25.0909C38.3835 24.5606 38.6184 23.9545 38.7472 23.2727L42.9972 23.2955C42.8381 24.4015 42.4934 25.4394 41.9631 26.4091C41.4403 27.3788 40.7547 28.2348 39.9062 28.9773C39.0578 29.7121 38.0653 30.2879 36.929 30.7045C35.7926 31.1136 34.5313 31.3182 33.1449 31.3182C31.0994 31.3182 29.2737 30.8447 27.6676 29.8977C26.0616 28.9508 24.7964 27.5833 23.8722 25.7955C22.9479 24.0076 22.4858 21.8636 22.4858 19.3636C22.4858 16.8561 22.9517 14.7121 23.8835 12.9318C24.8153 11.1439 26.0843 9.77651 27.6903 8.82954C29.2964 7.88257 31.1146 7.40909 33.1449 7.40909C34.4403 7.40909 35.6449 7.59091 36.7585 7.95454C37.8722 8.31818 38.8646 8.85227 39.7358 9.55682C40.607 10.2538 41.3229 11.1098 41.8835 12.125C42.4517 13.1326 42.8229 14.2841 42.9972 15.5795ZM46.858 31V7.72727H51.0739V17.5795H61.858V7.72727H66.0852V31H61.858V21.1136H51.0739V31H46.858ZM91.4659 19.3636C91.4659 21.8712 90.9962 24.0189 90.0568 25.8068C89.125 27.5871 87.8523 28.9508 86.2386 29.8977C84.6326 30.8447 82.8106 31.3182 80.7727 31.3182C78.7348 31.3182 76.9091 30.8447 75.2955 29.8977C73.6894 28.9432 72.4167 27.5758 71.4773 25.7955C70.5455 24.0076 70.0795 21.8636 70.0795 19.3636C70.0795 16.8561 70.5455 14.7121 71.4773 12.9318C72.4167 11.1439 73.6894 9.77651 75.2955 8.82954C76.9091 7.88257 78.7348 7.40909 80.7727 7.40909C82.8106 7.40909 84.6326 7.88257 86.2386 8.82954C87.8523 9.77651 89.125 11.1439 90.0568 12.9318C90.9962 14.7121 91.4659 16.8561 91.4659 19.3636ZM87.2273 19.3636C87.2273 17.5985 86.9508 16.1098 86.3977 14.8977C85.8523 13.678 85.0947 12.7576 84.125 12.1364C83.1553 11.5076 82.0379 11.1932 80.7727 11.1932C79.5076 11.1932 78.3902 11.5076 77.4205 12.1364C76.4508 12.7576 75.6894 13.678 75.1364 14.8977C74.5909 16.1098 74.3182 17.5985 74.3182 19.3636C74.3182 21.1288 74.5909 22.6212 75.1364 23.8409C75.6894 25.053 76.4508 25.9735 77.4205 26.6023C78.3902 27.2235 79.5076 27.5341 80.7727 27.5341C82.0379 27.5341 83.1553 27.2235 84.125 26.6023C85.0947 25.9735 85.8523 25.053 86.3977 23.8409C86.9508 22.6212 87.2273 21.1288 87.2273 19.3636ZM116.247 19.3636C116.247 21.8712 115.777 24.0189 114.838 25.8068C113.906 27.5871 112.634 28.9508 111.02 29.8977C109.414 30.8447 107.592 31.3182 105.554 31.3182C103.516 31.3182 101.69 30.8447 100.077 29.8977C98.4706 28.9432 97.1979 27.5758 96.2585 25.7955C95.3267 24.0076 94.8608 21.8636 94.8608 19.3636C94.8608 16.8561 95.3267 14.7121 96.2585 12.9318C97.1979 11.1439 98.4706 9.77651 100.077 8.82954C101.69 7.88257 103.516 7.40909 105.554 7.40909C107.592 7.40909 109.414 7.88257 111.02 8.82954C112.634 9.77651 113.906 11.1439 114.838 12.9318C115.777 14.7121 116.247 16.8561 116.247 19.3636ZM112.009 19.3636C112.009 17.5985 111.732 16.1098 111.179 14.8977C110.634 13.678 109.876 12.7576 108.906 12.1364C107.937 11.5076 106.819 11.1932 105.554 11.1932C104.289 11.1932 103.171 11.5076 102.202 12.1364C101.232 12.7576 100.471 13.678 99.9176 14.8977C99.3722 16.1098 99.0994 17.5985 99.0994 19.3636C99.0994 21.1288 99.3722 22.6212 99.9176 23.8409C100.471 25.053 101.232 25.9735 102.202 26.6023C103.171 27.2235 104.289 27.5341 105.554 27.5341C106.819 27.5341 107.937 27.2235 108.906 26.6023C109.876 25.9735 110.634 25.053 111.179 23.8409C111.732 22.6212 112.009 21.1288 112.009 19.3636ZM120.233 31V7.72727H124.449V27.4659H134.699V31H120.233Z" fill="black"/>
</svg>
