<svg width="144" height="15" viewBox="0 0 144 15" fill="none" xmlns="http://www.w3.org/2000/svg">
<path d="M7.74432 4.18182C7.66761 3.53409 7.35653 3.03125 6.81108 2.6733C6.26563 2.31534 5.59659 2.13636 4.80398 2.13636C4.22443 2.13636 3.71733 2.23011 3.28267 2.41761C2.85227 2.60511 2.51563 2.86293 2.27273 3.19105C2.03409 3.51918 1.91477 3.89204 1.91477 4.30966C1.91477 4.65909 1.99787 4.95952 2.16406 5.21094C2.33452 5.4581 2.55185 5.66477 2.81605 5.83097C3.08026 5.9929 3.35724 6.12713 3.64702 6.23366C3.93679 6.33594 4.20312 6.41903 4.44602 6.48295L5.77557 6.84091C6.11648 6.9304 6.49574 7.05398 6.91335 7.21165C7.33523 7.36932 7.73793 7.58452 8.12145 7.85724C8.50923 8.12571 8.82884 8.47088 9.08026 8.89276C9.33168 9.31463 9.45739 9.83239 9.45739 10.446C9.45739 11.1534 9.27202 11.7926 8.90128 12.3636C8.5348 12.9347 7.99787 13.3885 7.29048 13.7251C6.58736 14.0618 5.73295 14.2301 4.72727 14.2301C3.78977 14.2301 2.97798 14.0788 2.2919 13.7763C1.61009 13.4737 1.07315 13.0518 0.681108 12.5107C0.293324 11.9695 0.0738637 11.3409 0.0227273 10.625H1.65909C1.7017 11.1193 1.8679 11.5284 2.15767 11.8523C2.4517 12.1719 2.82244 12.4105 3.26989 12.5682C3.72159 12.7216 4.20739 12.7983 4.72727 12.7983C5.33239 12.7983 5.87571 12.7003 6.35724 12.5043C6.83878 12.304 7.22017 12.027 7.50142 11.6733C7.78267 11.3153 7.9233 10.8977 7.9233 10.4205C7.9233 9.9858 7.80185 9.6321 7.55895 9.35938C7.31605 9.08665 6.99645 8.86506 6.60014 8.6946C6.20384 8.52415 5.77557 8.375 5.31534 8.24716L3.70455 7.78693C2.68182 7.4929 1.87216 7.07315 1.27557 6.5277C0.678977 5.98224 0.380682 5.26847 0.380682 4.38636C0.380682 3.65341 0.578835 3.0142 0.975142 2.46875C1.37571 1.91903 1.91264 1.4929 2.58594 1.19034C3.26349 0.883522 4.01989 0.730113 4.85511 0.730113C5.69886 0.730113 6.44886 0.881392 7.10511 1.18395C7.76136 1.48224 8.28125 1.89133 8.66477 2.41122C9.05256 2.93111 9.2571 3.52131 9.27841 4.18182H7.74432ZM22.8637 14V0.909091H30.7643V2.31534H24.449V6.73864H30.3552V8.14489H24.449V12.5938H30.8666V14H22.8637ZM44.4216 0.909091H46.3136L50.7625 11.7756H50.9159L55.3647 0.909091H57.2568V14H55.7738V4.05398H55.646L51.5551 14H50.1233L46.0323 4.05398H45.9045V14H44.4216V0.909091ZM72.8205 0.909091V14H71.2352V0.909091H72.8205ZM97.1796 0.909091V14H95.6455L88.512 3.72159H88.3841V14H86.7989V0.909091H88.333L95.4921 11.2131H95.6199V0.909091H97.1796ZM111.689 14H110.027L114.833 0.909091H116.47L121.277 14H119.615L115.703 2.98011H115.6L111.689 14ZM112.302 8.88636H119.001V10.2926H112.302V8.88636ZM134.116 14V0.909091H138.539C139.562 0.909091 140.401 1.08381 141.057 1.43324C141.714 1.77841 142.2 2.25355 142.515 2.85866C142.83 3.46378 142.988 4.15199 142.988 4.9233C142.988 5.6946 142.83 6.37855 142.515 6.97514C142.2 7.57173 141.716 8.04048 141.064 8.38139C140.412 8.71804 139.579 8.88636 138.565 8.88636H134.985V7.45455H138.513C139.212 7.45455 139.775 7.35227 140.201 7.14773C140.631 6.94318 140.942 6.65341 141.134 6.27841C141.33 5.89915 141.428 5.44744 141.428 4.9233C141.428 4.39915 141.33 3.94105 141.134 3.54901C140.938 3.15696 140.625 2.8544 140.195 2.64134C139.764 2.42401 139.195 2.31534 138.488 2.31534H135.701V14H134.116ZM140.278 8.11932L143.499 14H141.658L138.488 8.11932H140.278Z" fill="#206B4A"/>
</svg>
